<svg xmlns="http://www.w3.org/2000/svg" width="240" height="140" viewBox="0 0 240 140">
  <defs>
    <linearGradient id="bg" x1="0" y1="0" x2="1" y2="1">
      <stop offset="0%" stop-color="#1e293b"/>
      <stop offset="100%" stop-color="#0f172a"/>
    </linearGradient>
  </defs>
  <rect width="240" height="140" rx="12" fill="url(#bg)"/>
  <rect x="8" y="8" width="224" height="124" rx="8" fill="rgba(255,255,255,0.1)"/>
  <rect x="8" y="8" width="224" height="124" rx="8" fill="rgba(255,255,255,0.03)" stroke="rgba(255,255,255,0.12)" stroke-width="0.5"/>
  <g transform="translate(120,58)" fill="rgba(255,255,255,0.9)">
    <path d="M12 0C5.37 0 0 5.37 0 12c0 5.31 3.435 9.795 8.205 11.385.6.105.825-.255.825-.57 0-.285-.015-1.23-.015-2.235-3.015.555-3.795-.735-4.035-1.41-.135-.345-.72-1.41-1.23-1.695-.42-.225-1.02-.78-.015-.795.945-.015 1.62.87 1.845 1.23 1.08 1.815 2.805 1.305 3.495.99.105-.78.42-1.305.765-1.605-2.67-.3-5.46-1.335-5.46-5.925 0-1.305.465-2.385 1.23-3.225-.12-.3-.54-1.53.12-3.18 0 0 1.005-.315 3.3 1.23.96-.27 1.98-.405 3-.405s2.04.135 3 .405c2.295-1.56 3.3-1.23 3.3-1.23.66 1.65.24 2.88.12 3.18.765.84 1.23 1.905 1.23 3.225 0 4.605-2.805 5.625-5.475 5.925.435.375.81 1.095.81 2.22 0 1.605-.015 2.895-.015 3.3 0 .315.225.69.825.57A12.02 12.02 0 0 0 24 12c0-6.63-5.37-12-12-12z"/>
  </g>
  <text x="120" y="108" text-anchor="middle" fill="rgba(255,255,255,0.75)" font-family="-apple-system,BlinkMacSystemFont,sans-serif" font-size="11" font-weight="500">GitHub</text>
</svg>
