<svg xmlns="http://www.w3.org/2000/svg" width="240" height="140" viewBox="0 0 240 140">
  <defs>
    <linearGradient id="bg" x1="0" y1="0" x2="1" y2="1">
      <stop offset="0%" stop-color="#f59e0b"/>
      <stop offset="50%" stop-color="#f97316"/>
      <stop offset="100%" stop-color="#ef4444"/>
    </linearGradient>
  </defs>
  <rect width="240" height="140" rx="12" fill="url(#bg)"/>
  <rect x="8" y="8" width="224" height="124" rx="8" fill="rgba(255,255,255,0.15)"/>
  <rect x="8" y="8" width="224" height="124" rx="8" fill="rgba(255,255,255,0.05)" stroke="rgba(255,255,255,0.2)" stroke-width="0.5"/>
  <g transform="translate(120,55)" fill="none" stroke="rgba(255,255,255,0.9)" stroke-width="2" stroke-linecap="round" stroke-linejoin="round">
    <path d="M14.5 3H7a2 2 0 0 0-2 2v14a2 2 0 0 0 2 2h10a2 2 0 0 0 2-2V7.5Z"/>
    <polyline points="14 3 14 8 19 8"/>
    <line x1="8" y1="12" x2="16" y2="12"/>
    <line x1="8" y1="16" x2="13" y2="16"/>
  </g>
  <text x="120" y="105" text-anchor="middle" fill="rgba(255,255,255,0.85)" font-family="-apple-system,BlinkMacSystemFont,sans-serif" font-size="11" font-weight="500">SOPs</text>
</svg>
