<svg xmlns="http://www.w3.org/2000/svg" width="240" height="140" viewBox="0 0 240 140">
  <defs>
    <linearGradient id="bg" x1="0" y1="0" x2="1" y2="1">
      <stop offset="0%" stop-color="#6366f1"/>
      <stop offset="50%" stop-color="#06b6d4"/>
      <stop offset="100%" stop-color="#22d3ee"/>
    </linearGradient>
  </defs>
  <rect width="240" height="140" rx="12" fill="url(#bg)"/>
  <rect x="8" y="8" width="224" height="124" rx="8" fill="rgba(255,255,255,0.15)"/>
  <rect x="8" y="8" width="224" height="124" rx="8" fill="rgba(255,255,255,0.05)" stroke="rgba(255,255,255,0.2)" stroke-width="0.5"/>
  <g transform="translate(120,60)" fill="none" stroke="rgba(255,255,255,0.9)" stroke-width="2" stroke-linecap="round" stroke-linejoin="round">
    <path d="M3 9.5V17a1 1 0 0 0 1 1h4v-5a2 2 0 0 1 2-2h0a2 2 0 0 1 2 2v5h4a1 1 0 0 0 1-1V9.5"/>
    <polyline points="0.5 11.5 12 3 23.5 11.5"/>
  </g>
  <text x="120" y="105" text-anchor="middle" fill="rgba(255,255,255,0.85)" font-family="-apple-system,BlinkMacSystemFont,sans-serif" font-size="11" font-weight="500">Home</text>
</svg>
